<svg width="16" height="16" viewBox="0 0 16 16" fill="none" xmlns="http://www.w3.org/2000/svg">
<path d="M5.01382 1.15503C5.41857 0.978638 5.88978 1.16352 6.06656 1.56812C6.24327 1.97306 6.05842 2.44511 5.65347 2.62183C4.77523 3.00511 4.00371 3.59735 3.40738 4.34741C2.81108 5.09746 2.40801 5.98256 2.23257 6.92456C2.05717 7.86657 2.11517 8.83729 2.40152 9.75171C2.6879 10.6662 3.19372 11.4969 3.87515 12.1707C4.55659 12.8444 5.39304 13.341 6.3107 13.6169C7.2283 13.8928 8.19988 13.9398 9.1398 13.7537C10.0797 13.5675 10.9601 13.1534 11.7033 12.5486C12.4463 11.9438 13.0303 11.1663 13.4035 10.2839C13.5755 9.87715 14.0445 9.68642 14.4513 9.85815C14.8583 10.0302 15.0492 10.5 14.8771 10.907C14.4021 12.0302 13.6589 13.02 12.713 13.7898C11.7671 14.5596 10.6467 15.0861 9.45034 15.323C8.25403 15.5599 7.01765 15.5003 5.84976 15.1492C4.68184 14.798 3.61743 14.1658 2.75015 13.3083C1.88292 12.4509 1.23865 11.394 0.874172 10.2302C0.509675 9.06635 0.436069 7.8306 0.659328 6.63159C0.8826 5.43272 1.39654 4.30689 2.15542 3.35229C2.91441 2.39766 3.89604 1.64284 5.01382 1.15503ZM8.00015 0.534912C8.98061 0.534912 9.95173 0.728093 10.8576 1.10327C11.7632 1.47841 12.5862 2.02837 13.2794 2.72144C13.9727 3.4147 14.5234 4.23851 14.8986 5.14429C15.2737 6.05001 15.4669 7.02138 15.4669 8.00171C15.4668 8.44328 15.1087 8.80134 14.6671 8.80151H8.00015C7.55848 8.80145 7.20052 8.44335 7.20034 8.00171V1.33472C7.20042 1.12265 7.28476 0.919244 7.43472 0.769287C7.58471 0.619344 7.78806 0.534944 8.00015 0.534912ZM8.79995 7.20093H13.8107C13.7425 6.70595 13.6121 6.22024 13.4201 5.75659C13.1253 5.04501 12.6932 4.39793 12.1486 3.85327C11.6039 3.3086 10.957 2.8756 10.2453 2.58081C9.78134 2.38868 9.29523 2.25835 8.79995 2.19019V7.20093Z" fill="white"/>
</svg>
