<svg width="16" height="16" viewBox="0 0 16 16" fill="none" xmlns="http://www.w3.org/2000/svg">
<path d="M5.55859 2.2002C6.43381 2.2002 7.27273 2.54812 7.8916 3.16699C7.95097 3.22636 8.00721 3.2883 8.06152 3.35156C8.11584 3.2883 8.17208 3.22636 8.23145 3.16699C8.85032 2.54812 9.68924 2.2002 10.5645 2.2002H12.0605C12.5024 2.2002 12.8604 2.55817 12.8604 3C12.8604 3.44183 12.5024 3.7998 12.0605 3.7998H10.5645C10.1136 3.7998 9.68112 3.97904 9.3623 4.29785C9.04349 4.61666 8.86426 5.04913 8.86426 5.5V11.0693L10.624 9.30957C10.9364 8.99715 11.4425 8.99715 11.7549 9.30957C12.0673 9.62199 12.0673 10.128 11.7549 10.4404L8.62988 13.5654C8.31746 13.8778 7.81144 13.8778 7.49902 13.5654L4.37402 10.4404C4.0616 10.128 4.0616 9.62199 4.37402 9.30957C4.68644 8.99715 5.19246 8.99715 5.50488 9.30957L7.26465 11.0693V5.59375C7.26106 5.56298 7.25879 5.53173 7.25879 5.5C7.25879 5.04913 7.07955 4.61666 6.76074 4.29785C6.44193 3.97904 6.00946 3.7998 5.55859 3.7998H3.93945C3.49763 3.7998 3.13965 3.44183 3.13965 3C3.13965 2.55817 3.49763 2.2002 3.93945 2.2002H5.55859Z" fill="white"/>
</svg>
