<svg width="896" height="220" viewBox="0 0 896 220" fill="none" xmlns="http://www.w3.org/2000/svg">
<mask id="path-1-inside-1_1135_1297" fill="white">
<path d="M0 0H896V220H0V0Z"/>
</mask>
<path d="M896 220V219H0V220V221H896V220Z" fill="#202020" mask="url(#path-1-inside-1_1135_1297)"/>
<path d="M119.399 173.27L89.6317 179.853L59.7342 197.983L29.849 204.103L0 219H896V0L866.135 5.98213L836.27 2.49398L806.431 14.642L776.593 26.0432L746.632 10.9717L716.788 18.2817L686.927 41.3452L657.067 45.4677L627.17 67.7059L597.372 62.5806L562.926 56.8216L537.628 65.8364L507.707 86.3363L477.86 78.6451L448.012 97.1033L418.165 85.9015L388.293 89.0402L358.396 106.07L328.524 101.352L298.666 114.63L268.829 123.604L238.836 144L209.068 134.5L179.728 147.774L149.339 152.794L119.399 173.27Z" fill="url(#paint0_linear_1135_1297)" fill-opacity="0.05"/>
<path d="M119.399 197.612L89.6317 197.657L59.7342 209.841L29.849 208.999L0 219H896V106L866.135 111.053L836.27 111.107L806.431 118.369L776.593 136L746.632 131.268L716.788 145.443L686.927 140.926L657.067 160.409L627.17 139.194L597.372 150.865L562.926 154L537.628 161.615L507.707 154.932L477.86 164.435L448.012 164.028L418.165 154.565L388.293 173.217L358.396 163.603L328.524 164.617L298.666 178.834L268.829 186.415L238.836 185.586L209.068 173.351L179.728 185.832L149.339 187.073L119.399 197.612Z" fill="#0D0D0D"/>
<path d="M119.399 197.612L89.6317 197.657L59.7342 209.841L29.849 208.999L0 219H896V106L866.135 111.053L836.27 111.107L806.431 118.369L776.593 136L746.632 131.268L716.788 145.443L686.927 140.926L657.067 160.409L627.17 139.194L597.372 150.865L562.926 154L537.628 161.615L507.707 154.932L477.86 164.435L448.012 164.028L418.165 154.565L388.293 173.217L358.396 163.603L328.524 164.617L298.666 178.834L268.829 186.415L238.836 185.586L209.068 173.351L179.728 185.832L149.339 187.073L119.399 197.612Z" fill="url(#paint1_linear_1135_1297)" fill-opacity="0.05"/>
<defs>
<linearGradient id="paint0_linear_1135_1297" x1="448" y1="0" x2="448" y2="219" gradientUnits="userSpaceOnUse">
<stop stop-color="white"/>
<stop offset="1" stop-color="white" stop-opacity="0"/>
</linearGradient>
<linearGradient id="paint1_linear_1135_1297" x1="448" y1="106" x2="448" y2="219" gradientUnits="userSpaceOnUse">
<stop stop-color="white"/>
<stop offset="1" stop-color="white" stop-opacity="0"/>
</linearGradient>
</defs>
</svg>
