<svg width="135" height="48" viewBox="0 0 135 48" fill="none" xmlns="http://www.w3.org/2000/svg">
<g clip-path="url(#clip0_1181_1039)">
<path d="M16 40C24.8667 40 32 32.8667 32 24C32 15.1333 24.8667 8 16 8C7.13328 8 0 15.1333 0 24C0 32.8667 7.13328 40 16 40Z" fill="#2775CA"/>
<path d="M20.4001 26.5333C20.4001 24.2 19.0001 23.4 16.2001 23.0667C14.2001 22.8 13.8001 22.2667 13.8001 21.3333C13.8001 20.3999 14.4668 19.8 15.8001 19.8C17.0001 19.8 17.6668 20.2 18.0001 21.2C18.0668 21.4 18.2668 21.5333 18.4668 21.5333H19.5334C19.8001 21.5333 20.0001 21.3333 20.0001 21.0667V21C19.7334 19.5333 18.5334 18.4 17.0001 18.2667V16.6667C17.0001 16.4 16.8001 16.2 16.4668 16.1333H15.4668C15.2001 16.1333 15.0001 16.3333 14.9334 16.6667V18.2C12.9334 18.4667 11.6668 19.8 11.6668 21.4667C11.6668 23.6667 13.0001 24.5333 15.8001 24.8667C17.6668 25.2 18.2668 25.6 18.2668 26.6667C18.2668 27.7335 17.3334 28.4667 16.0668 28.4667C14.3334 28.4667 13.7334 27.7333 13.5334 26.7333C13.4668 26.4667 13.2668 26.3333 13.0668 26.3333H11.9334C11.6668 26.3333 11.4668 26.5333 11.4668 26.8V26.8667C11.7334 28.5333 12.8001 29.7333 15.0001 30.0667V31.6667C15.0001 31.9333 15.2001 32.1333 15.5334 32.2H16.5334C16.8001 32.2 17.0001 32 17.0668 31.6667V30.0667C19.0668 29.7333 20.4001 28.3333 20.4001 26.5333Z" fill="white"/>
<path d="M12.6001 33.5333C7.40008 31.6667 4.73336 25.8667 6.6668 20.7333C7.6668 17.9333 9.8668 15.8 12.6001 14.8C12.8668 14.6667 13.0001 14.4667 13.0001 14.1333V13.2C13.0001 12.9333 12.8668 12.7333 12.6001 12.6667C12.5334 12.6667 12.4001 12.6667 12.3334 12.7333C6.00008 14.7333 2.53336 21.4667 4.53336 27.8C5.73336 31.5333 8.60008 34.4 12.3334 35.6C12.6001 35.7333 12.8668 35.6 12.9334 35.3333C13.0001 35.2667 13.0001 35.2 13.0001 35.0667V34.1333C13.0001 33.9333 12.8001 33.6667 12.6001 33.5333ZM19.6668 12.7333C19.4001 12.6 19.1334 12.7333 19.0668 13C19.0001 13.0667 19.0001 13.1333 19.0001 13.2667V14.2C19.0001 14.4667 19.2001 14.7333 19.4001 14.8667C24.6001 16.7333 27.2668 22.5333 25.3334 27.6667C24.3334 30.4667 22.1334 32.6 19.4001 33.6C19.1334 33.7333 19.0001 33.9333 19.0001 34.2667V35.2C19.0001 35.4667 19.1334 35.6667 19.4001 35.7333C19.4668 35.7333 19.6001 35.7333 19.6668 35.6667C26.0001 33.6667 29.4668 26.9333 27.4668 20.6C26.2668 16.8 23.3334 13.9333 19.6668 12.7333Z" fill="white"/>
</g>
<path d="M47.6 14L41.4 17.2V13.68L48.12 10H51.44V38H47.6V14ZM58.4884 38H57.8884L56.5284 36.64V34.64L57.8884 33.28H60.0484L61.4084 34.64V38L59.2884 43.08H57.1684L58.4884 38ZM65.2803 32.4L79.8403 18.36V15.12L78.0803 13.36H70.7203L68.9603 15.12V17.48H65.1203V13.88L69.0003 10H79.8003L83.6803 13.88V19.48L69.2003 33.36V34.68H83.8403V38H65.2803V32.4ZM87.425 34.12V30.56H91.265V32.88L93.025 34.64H101.105L102.865 32.88V27.32L101.145 25.6H93.145V22.24H101.145L102.865 20.52V15.12L101.105 13.36H93.265L91.505 15.12V17.44H87.665V13.88L91.545 10H102.825L106.705 13.88V21.64L104.385 23.92L106.705 26.24V34.12L102.825 38H91.305L87.425 34.12ZM111.702 33.8V14.2L115.902 10H127.742L131.942 14.2V33.8L127.742 38H115.902L111.702 33.8ZM125.982 34.64L128.102 32.52V15.48L125.982 13.36H117.662L115.542 15.48V32.52L117.662 34.64H125.982Z" fill="white"/>
<defs>
<clipPath id="clip0_1181_1039">
<rect width="32" height="32" fill="white" transform="translate(0 8)"/>
</clipPath>
</defs>
</svg>
