<svg width="24" height="24" viewBox="0 0 24 24" fill="none" xmlns="http://www.w3.org/2000/svg">
<path d="M19.4883 8.8468C19.7641 8.8468 20 9.03472 20 9.29309V18.4728C20 18.7312 19.7641 18.9474 19.4883 18.9474H5.60547C4.72276 18.9474 4.00008 18.2713 4 17.4445V9.3468C4.00001 9.07067 4.22387 8.8468 4.5 8.8468H19.4883ZM16.5 12.4474C15.6717 12.4474 15.0001 13.1191 15 13.9474C15 14.7758 15.6716 15.4474 16.5 15.4474C17.3284 15.4474 18 14.7758 18 13.9474C17.9999 13.1191 17.3283 12.4474 16.5 12.4474ZM17.9053 5.06165C18.2135 5.00255 18.4989 5.23899 18.499 5.55286L18.5 7.44739H5.5L17.9053 5.06165Z" fill="white"/>
</svg>
