<svg width="16" height="16" viewBox="0 0 16 16" fill="none" xmlns="http://www.w3.org/2000/svg">
<path d="M10.4414 13.7998C9.56619 13.7998 8.72727 13.4519 8.1084 12.833C8.04903 12.7736 7.99279 12.7117 7.93848 12.6484C7.88416 12.7117 7.82792 12.7736 7.76855 12.833C7.14968 13.4519 6.31076 13.7998 5.43555 13.7998H3.93945C3.49763 13.7998 3.13965 13.4418 3.13965 13C3.13965 12.5582 3.49763 12.2002 3.93945 12.2002H5.43555C5.88642 12.2002 6.31888 12.021 6.6377 11.7021C6.95651 11.3833 7.13574 10.9509 7.13574 10.5V4.93066L5.37598 6.69043C5.06356 7.00285 4.55754 7.00285 4.24512 6.69043C3.9327 6.37801 3.9327 5.87199 4.24512 5.55957L7.37012 2.43457C7.68254 2.12215 8.18856 2.12215 8.50098 2.43457L11.626 5.55957C11.9384 5.87199 11.9384 6.37801 11.626 6.69043C11.3136 7.00285 10.8075 7.00285 10.4951 6.69043L8.73535 4.93066V10.4062C8.73894 10.437 8.74121 10.4683 8.74121 10.5C8.74121 10.9509 8.92045 11.3833 9.23926 11.7021C9.55807 12.021 9.99054 12.2002 10.4414 12.2002H12.0605C12.5024 12.2002 12.8604 12.5582 12.8604 13C12.8604 13.4418 12.5024 13.7998 12.0605 13.7998H10.4414Z" fill="white"/>
</svg>
